<svg width="42" height="42" viewBox="0 0 42 42" fill="none" xmlns="http://www.w3.org/2000/svg">
<path d="M38.5 17.4125V24.605C38.5 25.0141 38.4194 25.4191 38.2629 25.7971C38.1063 26.175 37.8769 26.5184 37.5876 26.8076C37.2984 27.0969 36.955 27.3263 36.5771 27.4829C36.1991 27.6394 35.7941 27.72 35.385 27.72H27.7025V35.4025C27.7057 35.8096 27.6267 36.2131 27.4704 36.589C27.314 36.9648 27.0835 37.3053 26.7925 37.59C26.2052 38.1707 25.4134 38.4975 24.5875 38.5H17.395C16.5691 38.4975 15.7773 38.1707 15.19 37.59C14.6136 37.007 14.2871 36.2223 14.28 35.4025V27.72H6.615C5.78885 27.72 4.99654 27.3918 4.41236 26.8076C3.82819 26.2235 3.5 25.4312 3.5 24.605V17.4125C3.5 16.5864 3.82819 15.794 4.41236 15.2099C4.99654 14.6257 5.78885 14.2975 6.615 14.2975H14.28V6.615C14.2847 5.99868 14.47 5.39727 14.8131 4.88526C15.1562 4.37325 15.642 3.97314 16.2102 3.7345C16.5863 3.58065 16.9887 3.50102 17.395 3.5H24.5C25.3259 3.50255 26.1177 3.82934 26.705 4.41C26.9949 4.69915 27.2246 5.04291 27.3808 5.42139C27.537 5.79987 27.6166 6.20556 27.615 6.615V14.2975H35.2975C36.1235 14.3028 36.9145 14.63 37.5025 15.2075C37.8075 15.4899 38.0528 15.8305 38.2241 16.2092C38.3955 16.5879 38.4893 16.997 38.5 17.4125Z" fill="#F7F8FF" fill-opacity="0.7"/>
</svg>
